<svg width="16" height="14" viewBox="0 0 16 14" fill="none" xmlns="http://www.w3.org/2000/svg">
<path d="M1.36575 4.93136C1.7728 3.92457 2.41083 3.02304 3.23046 2.29657C4.05009 1.57009 5.02934 1.03815 6.09241 0.741901C7.15548 0.445655 8.27387 0.393054 9.36102 0.588169C10.4482 0.783284 11.4749 1.22088 12.3618 1.8671C13.2487 2.51331 13.9719 3.35081 14.4755 4.31477C14.9791 5.27873 15.2496 6.34331 15.266 7.4261C15.2824 8.50889 15.0443 9.58086 14.5701 10.559C14.0959 11.5372 13.3984 12.3954 12.5315 13.0671C11.5326 13.8388 10.1615 13.78 8.98485 13.3024L3.24591 10.9732C2.06931 10.4956 1.05599 9.58507 0.907116 8.34753C0.83624 7.74906 0.844311 7.14414 0.931129 6.54769L1.36575 4.92901V4.93136Z" fill="#E7B65F"/>
</svg>
